Coordinates
version=1
nRows=9
nColumns=36
inDegrees=yes

Units are S.I. units (second, meters, Newtons, ...)
If the header above contains a line with 'inDegrees', this indicates whether rotational values are in degrees (yes) or radians (no).

endheader
time	pelvis_tilt	pelvis_list	pelvis_rotation	pelvis_tx	pelvis_ty	pelvis_tz	hip_flexion_r	hip_adduction_r	hip_rotation_r	knee_angle_r	knee_angle_r_beta	ankle_angle_r	subtalar_angle_r	mtp_angle_r	hip_flexion_l	hip_adduction_l	hip_rotation_l	knee_angle_l	knee_angle_l_beta	ankle_angle_l	subtalar_angle_l	mtp_angle_l	lumbar_extension	lumbar_bending	lumbar_rotation	arm_flex_r	arm_add_r	arm_rot_r	elbow_flex_r	pro_sup_r	arm_flex_l	arm_add_l	arm_rot_l	elbow_flex_l	pro_sup_l
      4.81666670	     -7.94928776	      1.53006363	      4.91942767	     -0.37516282	      1.26166838	     -0.04562354	      1.89730607	     -1.66625423	     14.69487988	      0.34265030	      0.00598038	     18.54147510	      1.87194993	     -7.49999987	      4.72827819	      0.48743724	     -9.22942747	      4.26777117	      0.07448666	     13.96837702	      8.71452267	     -7.49999987	      9.37391620	     -1.58726647	     -4.28740478	     -4.13273431	     -5.77644460	      9.93907484	     29.26441062	     72.27752516	     -1.50059349	     -9.90444810	     20.85580779	     25.31521617	     75.63878102
      4.83333330	     -8.29672203	      1.54939605	      4.85131235	     -0.37435281	      1.26710335	     -0.04551115	      2.32638487	     -1.72524051	     14.93611191	      0.37315427	      0.00651277	     18.63346786	      1.62467475	     -7.49999987	      5.26670365	      0.59799601	     -9.21679127	      4.11728254	      0.07186014	     14.05400312	      8.78018370	     -7.49999987	      9.14017200	     -1.58306764	     -4.47264839	     -4.05024255	     -5.92958571	     10.12843732	     29.49874503	     71.98416448	     -1.61753824	     -9.97139532	     20.97032188	     25.58764702	     75.29970180
      4.85000000	     -8.61835971	      1.53694063	      4.95771397	     -0.37469843	      1.26455427	     -0.04564694	      2.74447465	     -1.72018862	     14.80792695	      0.39315834	      0.00686191	     18.74213127	      1.75528610	     -7.49999987	      5.74479786	      0.62902587	     -8.87089303	      4.19910076	      0.07328813	     14.32000345	      8.65483944	     -7.49999987	      8.78822861	     -1.54900565	     -4.62453567	     -3.89146905	     -6.01430812	     10.26146354	     29.41707388	     71.21243372	     -1.55994631	    -10.03000308	     20.95631136	     25.64700233	     74.39278324
      4.86666670	     -8.90831050	      1.54010534	      4.96756442	     -0.38161374	      1.26620099	     -0.04839864	      3.16794736	     -1.78000093	     14.85575958	      0.42421181	      0.00740389	     18.77469205	      1.72492431	     -7.49999987	      6.16130403	      0.68630845	     -8.85649083	      4.12340830	      0.07196705	     14.33035721	      8.73814645	     -7.49999987	      8.22208139	     -1.39142514	     -4.57591704	     -3.58107379	     -6.24743616	     10.26124450	     29.47307827	     71.24588062	     -1.42567010	     -9.99639775	     20.98134787	     25.68575586	     74.44948056
      4.88333330	     -9.17132740	      1.59710275	      4.97431055	     -0.38135853	      1.26595510	     -0.04836938	      3.51668875	     -1.90548021	     14.80697225	      0.47855941	      0.00835244	     18.72037824	      1.64514129	     -7.49999987	      6.60538025	      0.82553052	     -8.76204443	      4.13153716	      0.07210893	     14.40161013	      8.80866788	     -7.49999987	      7.53073757	     -1.29957303	     -4.52536169	     -3.48092501	     -6.49804353	     10.25797913	     29.50888061	     71.27927509	     -1.51700082	    -10.03474601	     20.99145392	     25.65714135	     74.50332839
      4.90000000	     -9.56422534	      1.60335014	      5.10205141	     -0.38109775	      1.26538330	     -0.04832068	      4.02988028	     -1.96938653	     14.79514870	      0.54823125	      0.00956844	     18.47335564	      1.16189222	     -7.49999987	      7.25987567	      0.89766286	     -8.58526035	      4.46908856	      0.07800031	     14.58167346	      8.62724268	     -7.49999987	      6.88772381	     -1.17666730	     -4.43580123	     -3.53846645	     -6.84064061	     10.45874913	     30.19847651	     71.17748568	     -1.78486608	    -10.07700504	     20.55675794	     25.73915877	     74.39722553
      4.91666670	     -9.86995504	      1.70337784	      5.12850312	     -0.38838298	      1.26563146	     -0.05093180	      4.56853965	     -2.20192659	     14.67856863	      0.62495289	      0.01090749	     18.40735367	      1.14048750	     -7.49999987	      7.81397615	      1.16022789	     -8.46908632	      4.46419151	      0.07791484	     14.57618404	      8.70634499	     -7.49999987	      6.04296315	     -1.07082102	     -4.28002681	     -3.32839579	     -7.19490603	     10.41726990	     30.21313926	     71.22271423	     -1.92166348	    -10.10112951	     20.52094462	     25.60527909	     74.46235921
      4.93333330	    -10.36201899	      1.74167939	      5.21926737	     -0.38858588	      1.26479970	     -0.05097795	      5.31579110	     -2.36025329	     14.33849544	      0.74589267	      0.01301828	     18.35210203	      1.43150168	     -7.49999987	      8.67849301	      1.32316553	     -7.99922493	      4.79136916	      0.08362517	     14.58599176	      8.13983718	     -7.49999987	      5.38013769	     -0.95440398	     -4.22150180	     -3.09330756	     -7.40715854	     10.28854345	     30.20145629	     69.34412136	     -1.89825730	     -9.83852877	     19.60790153	     24.88873183	     72.15958446
      4.95000000	    -10.87121169	      1.86148109	      5.19323508	     -0.40316036	      1.26818230	     -0.05596772	      6.35018731	     -2.68765842	     14.35947446	      0.98485484	      0.01718896	     17.97637864	      1.01770100	     -7.49999987	      9.56816364	      1.67611338	     -8.03809062	      4.82034608	      0.08413091	     14.48162282	      8.04795939	     -7.49999987	      4.32337902	     -0.78866270	     -4.32786812	     -2.41826896	     -8.03356498	     11.18255567	     30.06825911	     75.17179981	     -1.98065294	     -9.70348380	     17.17499625	     24.95404535	     81.15078984
